<svg xmlns="http://www.w3.org/2000/svg" width="32.237" height="22.97" viewBox="0 0 32.237 22.97">
  <g id="_95645" data-name="95645" transform="translate(0 -33.085)">
    <path id="Контур_35" data-name="Контур 35" d="M169.743,48.915c0-.037.025-.073.024-.109l-9.838,9.479,9.826,9.176c.006-.066-.012-.132-.012-.2V48.915Z" transform="translate(-137.529 -13.519)" fill="#54b036"/>
    <path id="Контур_36" data-name="Контур 36" d="M30.366,126.9l-4.016,3.864a1.05,1.05,0,0,1-1.444.012L20.9,127.044l-9.89,9.533a2.279,2.279,0,0,0,.769.153H39.464a2.277,2.277,0,0,0,1.105-.3Z" transform="translate(-9.468 -80.676)" fill="#54b036"/>
    <path id="Контур_37" data-name="Контур 37" d="M21.413,47.885,36.427,33.423a2.275,2.275,0,0,0-1.16-.338H7.582a2.282,2.282,0,0,0-1.452.541Z" transform="translate(-5.271)" fill="#54b036"/>
    <path id="Контур_38" data-name="Контур 38" d="M0,52.1v18a2.284,2.284,0,0,0,.1.6l9.767-9.406Z" transform="translate(0 -16.352)" fill="#54b036"/>
  </g>
</svg>
