<svg xmlns="http://www.w3.org/2000/svg" width="24.067" height="11.378" viewBox="0 0 24.067 11.378">
  <g id="_484024" data-name="484024" transform="translate(7 -85.333)">
    <g id="Сгруппировать_3" data-name="Сгруппировать 3" transform="translate(0 85.333)">
      <path id="Контур_3" data-name="Контур 3" d="M16.963,90.77l-5.333-5.333a.356.356,0,0,0-.607.251V86.4a.355.355,0,0,0,.1.251l3.66,3.66H-6.644A.355.355,0,0,0-7,90.666v.711a.355.355,0,0,0,.356.356H14.786l-3.66,3.66a.355.355,0,0,0-.1.251v.711a.356.356,0,0,0,.607.251l5.333-5.333A.355.355,0,0,0,16.963,90.77Z" transform="translate(0 -85.333)"/>
    </g>
  </g>
</svg>
