<svg xmlns="http://www.w3.org/2000/svg" width="46.39" height="39.468" viewBox="0 0 46.39 39.468">
  <g id="best-price" transform="translate(0 -38.197)">
    <path id="Контур_20" data-name="Контур 20" d="M336.4,41.837l-8.073-3.363a3.647,3.647,0,0,0-2.787,0l-3.876,1.614a.68.68,0,0,0,.523,1.255l3.876-1.615a2.28,2.28,0,0,1,1.742,0l8.073,3.363a2.05,2.05,0,0,1,1.293,1.876V74.029a2.111,2.111,0,0,1-2.164,2.049h-1.1a.68.68,0,0,0,0,1.359h1.1a3.471,3.471,0,0,0,3.523-3.409V44.968A3.405,3.405,0,0,0,336.4,41.837Z" transform="translate(-292.141)" fill="#d0d832"/>
    <path id="Контур_21" data-name="Контур 21" d="M38.8,106.919H27.385a2.919,2.919,0,0,0,.039-3.811,2.936,2.936,0,0,0,.742-.54,2.92,2.92,0,0,0,.116-4.008,2.921,2.921,0,0,0,.75-4.482,2.951,2.951,0,0,0,.64-.485,2.924,2.924,0,0,0-2.068-4.99H24.558v-12.8a2.05,2.05,0,0,1,1.292-1.876l1.236-.515a.68.68,0,0,0-.522-1.255l-1.236.515A3.405,3.405,0,0,0,23.2,75.808V88.6H20.36a15.858,15.858,0,0,0-.238-9.725,2.624,2.624,0,0,0-.964-1.358A2.663,2.663,0,0,0,14.92,79.8c.212,4.086-1.672,5.492-4.281,7.439a31.386,31.386,0,0,0-2.72,2.2v-.891a.679.679,0,0,0-.68-.68H.68a.679.679,0,0,0-.68.68v19.273a.679.679,0,0,0,.68.68h6.56a.679.679,0,0,0,.68-.68v-1.71a5.638,5.638,0,0,1,3.149,1.082,3.453,3.453,0,0,0,2.087.715H25.139a3.619,3.619,0,0,0,1.583.365H38.8a.679.679,0,1,0,0-1.359Zm-26.909-.8a7.207,7.207,0,0,0-3.976-1.369V96.815a.68.68,0,0,0-1.359,0v10.331h-5.2V89.233h5.2v4.622a.68.68,0,0,0,1.359,0v-2.48a23.3,23.3,0,0,1,3.533-3.043c2.61-1.948,5.076-3.788,4.825-8.6a1.3,1.3,0,0,1,2.076-1.117,1.274,1.274,0,0,1,.469.659,14.263,14.263,0,0,1-.055,9.76.68.68,0,0,0,.633.927h8.206a1.564,1.564,0,1,1,0,3.129H24.814a.68.68,0,0,0,0,1.359h2.031a1.564,1.564,0,1,1,0,3.129H24.814a.68.68,0,0,0,0,1.359H26.1a1.564,1.564,0,0,1,0,3.129H24.068a.68.68,0,0,0,0,1.359H25.19A1.565,1.565,0,0,1,26.3,106.1a1.654,1.654,0,0,1-1.038.457l-12.1,0a2.09,2.09,0,0,1-1.26-.435Z" transform="translate(0 -30.84)" fill="#d0d832"/>
    <path id="Контур_22" data-name="Контур 22" d="M359.107,90.263a2.59,2.59,0,1,0-2.59,2.59A2.593,2.593,0,0,0,359.107,90.263Zm-3.82,0a1.231,1.231,0,1,1,1.231,1.231A1.232,1.232,0,0,1,355.287,90.263Z" transform="translate(-321.86 -44.993)" fill="#d0d832"/>
    <path id="Контур_23" data-name="Контур 23" d="M349.637,257.112h-1.219a1.166,1.166,0,0,1-1.164-1.164.68.68,0,0,0-1.359,0,2.526,2.526,0,0,0,2.453,2.522v1.5a.68.68,0,1,0,1.359,0v-1.5a2.526,2.526,0,0,0,2.453-2.522v-.941a2,2,0,0,0-1.388-1.91l-3.07-1a.648.648,0,0,1-.449-.617v-1.347a.947.947,0,0,1,.945-.946h1.656a.947.947,0,0,1,.945.946.68.68,0,1,0,1.359,0,2.307,2.307,0,0,0-2.3-2.3h-.149v-1.5a.68.68,0,0,0-1.359,0v1.5H348.2a2.307,2.307,0,0,0-2.3,2.3v1.347a2,2,0,0,0,1.388,1.91l3.07,1a.648.648,0,0,1,.449.618v.941A1.165,1.165,0,0,1,349.637,257.112Z" transform="translate(-314.555 -188.656)" fill="#d0d832"/>
  </g>
</svg>
