<svg id="_747374" data-name="747374" xmlns="http://www.w3.org/2000/svg" width="30.028" height="30.028" viewBox="0 0 30.028 30.028">
  <g id="Сгруппировать_4" data-name="Сгруппировать 4">
    <path id="Контур_4" data-name="Контур 4" d="M26.509,0H3.519A3.523,3.523,0,0,0,0,3.519v22.99a3.523,3.523,0,0,0,3.519,3.519h22.99a3.523,3.523,0,0,0,3.519-3.519V3.519A3.523,3.523,0,0,0,26.509,0Zm1.173,26.509a1.174,1.174,0,0,1-1.173,1.173H19.823v-9.56h3.624l.6-3.636H19.823V11.964A1.73,1.73,0,0,1,21.583,10.2h2.4V6.569h-2.4a5.4,5.4,0,0,0-5.394,5.406v2.512h-3.52v3.636h3.52v9.56H3.519a1.174,1.174,0,0,1-1.173-1.173V3.519A1.174,1.174,0,0,1,3.519,2.346h22.99a1.174,1.174,0,0,1,1.173,1.173Z" fill="#fff"/>
  </g>
</svg>
