<svg xmlns="http://www.w3.org/2000/svg" width="39.593" height="39.592" viewBox="0 0 39.593 39.592">
  <g id="house-cleaning" transform="translate(-1.999 -2)">
    <path id="Контур_10" data-name="Контур 10" d="M36.973,12.835V4.64a.66.66,0,0,0-.66-.66H31.034a.66.66,0,0,0-.66.66V8.057L22.183,2.125a.661.661,0,0,0-.774,0L2.272,15.983a.66.66,0,0,0,.387,1.194H5.3V40.933a.66.66,0,0,0,.66.66H37.633a.66.66,0,0,0,.66-.66V17.177h2.64a.66.66,0,0,0,.387-1.194ZM31.694,5.3h3.959v6.58L31.694,9.013Zm5.939,10.558H33.674v1.32h3.3v23.1H17.9A5.282,5.282,0,0,0,22.866,36.7l1.281-3.746.214-.624A3.939,3.939,0,0,0,22.5,27.578l5.36-15.67.427-1.248A1.98,1.98,0,1,0,24.54,9.378l-.427,1.248L18.755,26.291a3.953,3.953,0,0,0-4.384,2.623l-.214.624-1.281,3.746a4.063,4.063,0,0,1-.221.523l1.175.6a5.258,5.258,0,0,0,.294-.7l1.068-3.122,2.5.855-.641,1.873,1.249.427.641-1.873,1.248.427-1.281,3.746A3.3,3.3,0,0,1,14.718,38.1l-3.571-1.221a5.261,5.261,0,0,0,1.764-1.19l-.945-.921a3.982,3.982,0,0,1-4.118.983A.66.66,0,0,0,7.421,37l6.868,2.349h0l1.871.64a5.292,5.292,0,0,0,1.7.286H6.619v-23.1h3.3v-1.32H4.7L21.8,3.475,38.9,15.858ZM15.621,29.341A2.641,2.641,0,0,1,18.972,27.7l2.5.855A2.639,2.639,0,0,1,23.113,31.9Zm4.4-2.678L25.15,11.678,26.4,12.1,21.272,27.089l-.624-.214Zm7.015-16.43-.213.624-1.249-.427.213-.624a.66.66,0,1,1,1.249.427Zm-4.353,22.92-1.068,3.121a3.967,3.967,0,0,1-3.5,2.673,4.586,4.586,0,0,0,2.04-2.475l1.281-3.746Z" transform="translate(0)" fill="#d0d832"/>
    <path id="Контур_11" data-name="Контур 11" d="M0,0H1.32V1.32H0Z" transform="matrix(0.324, -0.946, 0.946, 0.324, 16.194, 35.828)" fill="#d0d832"/>
    <path id="Контур_12" data-name="Контур 12" d="M44,32h1.32v1.32H44Z" transform="translate(-14.285 -10.204)" fill="#d0d832"/>
    <path id="Контур_13" data-name="Контур 13" d="M46,34h1.32v1.32H46Z" transform="translate(-14.966 -10.884)" fill="#d0d832"/>
    <path id="Контур_14" data-name="Контур 14" d="M44,36h1.32v1.32H44Z" transform="translate(-14.285 -11.564)" fill="#d0d832"/>
    <path id="Контур_15" data-name="Контур 15" d="M42,34h1.32v1.32H42Z" transform="translate(-13.605 -10.884)" fill="#d0d832"/>
    <path id="Контур_16" data-name="Контур 16" d="M22,21h1.32v1.32H22Z" transform="translate(-6.803 -6.462)" fill="#d0d832"/>
    <path id="Контур_17" data-name="Контур 17" d="M24,23h1.32v1.32H24Z" transform="translate(-7.483 -7.142)" fill="#d0d832"/>
    <path id="Контур_18" data-name="Контур 18" d="M22,25h1.32v1.32H22Z" transform="translate(-6.803 -7.823)" fill="#d0d832"/>
    <path id="Контур_19" data-name="Контур 19" d="M20,23h1.32v1.32H20Z" transform="translate(-6.122 -7.142)" fill="#d0d832"/>
  </g>
</svg>
