<svg xmlns="http://www.w3.org/2000/svg" width="30.03" height="30.036" viewBox="0 0 30.03 30.036">
  <g id="instagram" transform="translate(-0.449 0)">
    <path id="Контур_5" data-name="Контур 5" d="M30.4,8.831a10.975,10.975,0,0,0-.7-3.644A7.694,7.694,0,0,0,25.309.792a11,11,0,0,0-3.644-.7C20.058.018,19.547,0,15.469,0s-4.588.018-6.19.088a10.978,10.978,0,0,0-3.644.7A7.329,7.329,0,0,0,2.972,2.523,7.4,7.4,0,0,0,1.241,5.181a11,11,0,0,0-.7,3.644c-.076,1.608-.094,2.118-.094,6.2s.018,4.588.088,6.19a10.975,10.975,0,0,0,.7,3.644A7.693,7.693,0,0,0,5.63,29.25a11,11,0,0,0,3.644.7c1.6.071,2.112.088,6.19.088s4.588-.017,6.19-.088a10.972,10.972,0,0,0,3.644-.7,7.683,7.683,0,0,0,4.395-4.395,11.012,11.012,0,0,0,.7-3.644c.07-1.6.088-2.112.088-6.19s-.006-4.588-.076-6.19ZM27.7,21.094a8.233,8.233,0,0,1-.516,2.787,4.982,4.982,0,0,1-2.852,2.852,8.262,8.262,0,0,1-2.787.516c-1.584.071-2.059.088-6.067.088s-4.489-.017-6.067-.088a8.228,8.228,0,0,1-2.787-.516A4.622,4.622,0,0,1,4.9,25.612a4.67,4.67,0,0,1-1.121-1.725A8.263,8.263,0,0,1,3.259,21.1c-.071-1.584-.088-2.06-.088-6.067s.017-4.489.088-6.067a8.228,8.228,0,0,1,.516-2.787A4.565,4.565,0,0,1,4.9,4.453,4.663,4.663,0,0,1,6.627,3.333a8.267,8.267,0,0,1,2.787-.516c1.584-.07,2.06-.088,6.067-.088s4.489.018,6.067.088a8.233,8.233,0,0,1,2.787.516A4.618,4.618,0,0,1,26.06,4.453a4.669,4.669,0,0,1,1.121,1.725A8.266,8.266,0,0,1,27.7,8.966c.07,1.584.088,2.059.088,6.067s-.018,4.477-.088,6.061Zm0,0" transform="translate(0 0)" fill="#fff"/>
    <path id="Контур_6" data-name="Контур 6" d="M132.583,124.5a7.634,7.634,0,1,0,7.634,7.634A7.636,7.636,0,0,0,132.583,124.5Zm0,12.586a4.952,4.952,0,1,1,4.952-4.952A4.953,4.953,0,0,1,132.583,137.086Zm0,0" transform="translate(-117.114 -117.113)" fill="#fff"/>
    <path id="Контур_7" data-name="Контур 7" d="M366.093,90.423a1.822,1.822,0,1,1-1.822-1.821A1.822,1.822,0,0,1,366.093,90.423Zm0,0" transform="translate(-340.793 -83.411)" fill="#fff"/>
  </g>
</svg>
