<svg xmlns="http://www.w3.org/2000/svg" width="34.059" height="40" viewBox="0 0 34.059 40">
  <g id="point" transform="translate(-0.001 0)">
    <path id="Контур_24" data-name="Контур 24" d="M112.337,66.052a9.782,9.782,0,1,0-9.781,9.782A9.793,9.793,0,0,0,112.337,66.052Zm-18,0a8.219,8.219,0,1,1,8.219,8.219A8.229,8.229,0,0,1,94.336,66.052Zm0,0" transform="translate(-85.525 -51.874)" fill="#d0d832" fill-rule="evenodd"/>
    <path id="Контур_25" data-name="Контур 25" d="M120.907,391.964a.781.781,0,0,0-.755,1.368c1.153.637,1.788,1.315,1.788,1.911,0,1.857-5.884,4.447-15.467,4.447a43.569,43.569,0,0,1-8.513-.79.781.781,0,0,0-.312,1.531,45.18,45.18,0,0,0,8.824.821,39.862,39.862,0,0,0,11.729-1.569c3.468-1.116,5.3-2.651,5.3-4.441C123.5,394.017,122.63,392.914,120.907,391.964Zm0,0" transform="translate(-89.443 -361.252)" fill="#d0d832" fill-rule="evenodd"/>
    <path id="Контур_26" data-name="Контур 26" d="M2.916,35.67c-.617-.4-1.352-1.01-1.352-1.68,0-1.53,3.939-3.495,10.554-4.2l4.338,4.726a.781.781,0,0,0,1.151,0l4.337-4.726c1.064.115,2.093.266,3.066.451a.806.806,0,0,0,.147.014.781.781,0,0,0,.145-1.549c-.663-.126-1.353-.237-2.059-.332l4.236-4.615.021-.024a14.178,14.178,0,1,0-20.938,0l.021.024,4.234,4.613A28.352,28.352,0,0,0,3.8,30.122C.66,31.448,0,32.957,0,33.99c0,1.1.7,2.112,2.07,2.994a.781.781,0,0,0,.845-1.314ZM7.735,22.705a12.616,12.616,0,1,1,18.592,0l-.021.023L17.031,32.835,7.755,22.729l-.021-.023Zm0,0" fill="#d0d832" fill-rule="evenodd"/>
    <path id="Контур_27" data-name="Контур 27" d="M152.992,116.946a.781.781,0,0,0,1.077-.782l-.232-2.985,1.942-2.279a.781.781,0,0,0-.411-1.266l-2.911-.7-1.567-2.551a.781.781,0,0,0-1.331,0l-1.567,2.551-2.911.7a.781.781,0,0,0-.411,1.266l1.942,2.279-.232,2.985a.781.781,0,0,0,1.077.782l2.768-1.143Zm-4.956-1.929.158-2.039a.781.781,0,0,0-.184-.567l-1.327-1.557,1.988-.479a.782.782,0,0,0,.482-.351l1.071-1.743,1.071,1.743a.781.781,0,0,0,.482.351l1.988.48-1.327,1.557a.78.78,0,0,0-.184.567l.158,2.039-1.89-.781a.782.782,0,0,0-.6,0Zm0,0" transform="translate(-133.194 -97.726)" fill="#d0d832" fill-rule="evenodd"/>
    <path id="Контур_28" data-name="Контур 28" d="M59.105,471.551a.781.781,0,1,0,.781.781A.783.783,0,0,0,59.105,471.551Zm0,0" transform="translate(-53.767 -434.711)" fill="#d0d832" fill-rule="evenodd"/>
    <path id="Контур_29" data-name="Контур 29" d="M350.848,377.558a.781.781,0,1,0,.781-.781A.783.783,0,0,0,350.848,377.558Zm0,0" transform="translate(-323.437 -347.342)" fill="#d0d832" fill-rule="evenodd"/>
  </g>
</svg>
