<svg xmlns="http://www.w3.org/2000/svg" width="21.147" height="21.147" viewBox="0 0 21.147 21.147">
  <g id="Сгруппировать_189" data-name="Сгруппировать 189" transform="translate(0.153 0.153)">
    <path id="Контур_31" data-name="Контур 31" d="M18.073,8a10.073,10.073,0,0,0-7.758,16.5,8,8,0,0,1,5.451-5.733,4.169,4.169,0,1,1,4.612,0A8,8,0,0,1,25.831,24.5,10.073,10.073,0,0,0,18.073,8Z" transform="translate(-7.653 -7.653)" fill="none" stroke="#54b036" stroke-width="1"/>
    <path id="Контур_32" data-name="Контур 32" d="M71.407,87.64a4.168,4.168,0,1,0-4.612,0,8,8,0,0,0-5.451,5.733h0c.11.132.224.262.34.388.028.031.058.06.086.091.09.1.18.189.273.281.039.038.078.074.117.112.086.082.173.163.262.242l.133.116q.131.112.265.22l.142.112q.137.105.277.2c.048.034.1.069.145.1.1.068.2.133.3.2l.136.087c.117.072.236.141.355.208l.094.054q.232.127.472.243l.012.005q.229.109.464.207c.049.021.1.039.147.058.113.045.226.09.342.131.061.022.123.042.184.063.1.035.211.07.317.1.067.02.135.039.2.058q.154.043.311.081l.213.049c.1.023.209.044.315.063.072.013.143.027.215.038.109.018.219.033.329.047.069.009.139.019.208.026.122.013.244.023.367.031.059,0,.118.01.178.014.183.01.367.016.552.016s.369-.006.552-.016c.059,0,.118-.009.177-.014.123-.009.246-.018.367-.031.07-.008.139-.017.208-.026.11-.014.22-.029.329-.047l.215-.038c.106-.019.211-.04.315-.063l.213-.049q.156-.038.311-.081c.068-.019.136-.038.2-.058.107-.032.212-.066.317-.1.061-.021.124-.041.184-.063.115-.041.229-.085.342-.131l.147-.058c.156-.065.31-.134.462-.207l.014-.006q.24-.115.472-.243l.094-.054c.12-.067.239-.136.355-.208.046-.028.091-.058.136-.087.1-.065.2-.13.3-.2l.145-.1q.14-.1.277-.2l.142-.112q.134-.107.265-.22l.133-.116c.089-.079.176-.16.262-.242l.117-.111q.14-.138.273-.281l.086-.091c.116-.127.23-.256.34-.388h0A8,8,0,0,0,71.407,87.64Z" transform="translate(-58.68 -76.526)" fill="#d0d832" stroke="#d0d832" stroke-width="1"/>
    <path id="Контур_33" data-name="Контур 33" d="M10.421,0A10.415,10.415,0,0,0,2.388,17.051c0,.005,0,.012.008.017A10.418,10.418,0,0,0,6.331,20l.052.023c.122.051.245.1.369.146l.147.055q.16.057.322.109l.208.065q.143.043.288.082c.085.023.17.044.256.065s.173.042.261.06.2.039.294.057c.079.015.158.03.238.043.109.018.22.032.33.046.071.009.142.019.214.027.125.013.251.023.378.031.059,0,.117.01.176.014q.277.016.559.016c.188,0,.374-.006.56-.015.059,0,.117-.009.176-.014.126-.009.253-.018.378-.031.072-.008.142-.018.214-.027.11-.014.221-.028.33-.046.08-.013.159-.028.238-.043.1-.018.2-.036.294-.057s.174-.039.261-.06.171-.042.256-.065.192-.053.288-.082l.208-.065q.162-.052.322-.109l.147-.055c.124-.047.247-.094.369-.146L14.511,20a10.421,10.421,0,0,0,3.935-2.936s0-.012.008-.017A10.416,10.416,0,0,0,10.421,0ZM12.5,10.844a3.68,3.68,0,0,1-.426.238l-.052.025a3.908,3.908,0,0,1-3.2,0l-.052-.025a3.651,3.651,0,0,1-.426-.238,3.821,3.821,0,1,1,4.157,0Zm-4.286.734c.029.016.058.034.088.049.1.055.208.106.316.152.082.036.167.067.252.1l.05.018a4.433,4.433,0,0,0,3,0l.05-.018c.085-.031.17-.062.252-.1.107-.046.212-.1.316-.152l.088-.049c.05-.028.1-.054.149-.084a7.669,7.669,0,0,1,5.018,5.259,9.783,9.783,0,0,1-3.151,2.429l-.015.008c-.124.06-.25.116-.377.171l-.086.037q-.167.07-.337.133l-.142.052c-.1.036-.2.07-.3.1l-.19.058c-.09.027-.181.053-.273.077s-.155.039-.233.058-.163.039-.245.057-.181.035-.271.052c-.073.014-.146.028-.22.04-.1.016-.2.029-.307.042-.065.008-.13.018-.2.025-.117.013-.235.02-.353.029-.052,0-.1.009-.158.012q-.258.014-.517.014T9.9,20.133c-.053,0-.1-.008-.158-.012-.118-.008-.236-.016-.353-.029-.066-.007-.13-.017-.2-.025-.1-.013-.205-.026-.307-.042-.074-.012-.147-.026-.22-.04-.091-.016-.181-.033-.271-.052s-.164-.037-.245-.057S8,19.84,7.922,19.82s-.182-.051-.273-.077l-.19-.058q-.153-.049-.3-.1l-.142-.052q-.17-.064-.337-.133l-.086-.036c-.127-.055-.253-.111-.378-.171L6.2,19.182a9.773,9.773,0,0,1-3.151-2.429,7.667,7.667,0,0,1,5.018-5.259C8.113,11.523,8.163,11.549,8.213,11.577Zm10.1,4.514a8.37,8.37,0,0,0-4.879-5.1,4.516,4.516,0,1,0-6.031,0,8.371,8.371,0,0,0-4.879,5.1,9.724,9.724,0,1,1,17.621-5.67A9.671,9.671,0,0,1,18.316,16.091Z" fill="#54b036"/>
  </g>
</svg>
